# xmcd
#
# Track frame offsets: 
#        150
#        13945
#        26152
#        37861
#        51229
#        65135
#        78377
#        89810
#        101506
#        114615
#        128135
#        137087
#        153342
#        171383
#        185298
#        195880
#        206015
#        219764
#        233746
#        250460
#        268207
#        283057
#
# Disc length: 4007 seconds
#
# Revision: 0
# Processed by: cddbd v1.5.2PL0 Copyright (c) Steve Scherf et al.
# Submitted via: ExactAudioCopy v1.1
#
DISCID=440fa516
DTITLE=Various Artist - All-Time Country Favourites - Kings and Queens 
DTITLE=Disc 2
DYEAR=2011
DGENRE=Country
TTITLE0=Kenny Rogers and Dottie West - Everytime two worlds collide
TTITLE1=George Jones and Melba Montgomery - We must have been out of o
TTITLE1=ur minds
TTITLE2=Glen Campbell and Bobbie Gentry - All I have to do is dream
TTITLE3=Del Reeves and Billie Jo Spears - On the rebound
TTITLE4=George Jones and Tammy Wynette - Golden ring
TTITLE5=Tammy Wynette and David Houston - My elusive dreams
TTITLE6=Conway Twitty and Loretta Lynn - Louisiana woman, Mississippi 
TTITLE6=man
TTITLE7=Johnny Cash and June Carter - Long legged guitar pickin' man
TTITLE8=Willie Nelson and Patsy Cline - Just a closer walk with thee
TTITLE9=Bobby Bare and Skeeter Davis - Your husband, my  wife
TTITLE10=Porter Waggoner and Dolly Parton - We'll get ahead someday
TTITLE11=Merle Haggard and Janie Fricke - A place to fall apart
TTITLE12=Eddie Rabbitt and Crystal Gayle - You and I
TTITLE13=Jim Ed Brown and Helen Cornelius - I don't want to have to ma
TTITLE13=rry you
TTITLE14=Ernest Tubb and Loretta Lynn - Who's gonna take the garbage o
TTITLE14=ut
TTITLE15=David Houston and Barbara Mandrell - After closing time
TTITLE16=Jim Reeves and Patsy Cline - Have you ever been lonely ( have
TTITLE16=you ever been blue )
TTITLE17=Glenn Campbell and Tanya Tucker - Why don't we just sleep on 
TTITLE17=it tonight
TTITLE18=Kenny Rogers and Kim Carnes - Don't fall in love with a dream
TTITLE18=er
TTITLE19=Dolly Parton and Kenny Rogers - Real love
TTITLE20=Johnny Duncan and Janie Fricke - He's out of my life
TTITLE21=Kenny Rogers and Sheena Easton - We've got tonight
EXTD=
EXTT0=
EXTT1=
EXTT2=
EXTT3=
EXTT4=
EXTT5=
EXTT6=
EXTT7=
EXTT8=
EXTT9=
EXTT10=
EXTT11=
EXTT12=
EXTT13=
EXTT14=
EXTT15=
EXTT16=
EXTT17=
EXTT18=
EXTT19=
EXTT20=
EXTT21=
PLAYORDER=
